<mxfile host="drawio-plugin" modified="2023-06-30T09:30:42.943Z" agent="5.0 (X11; Linux x86_64) AppleWebKit/537.36 (KHTML, like Gecko) Chrome/104.0.5112.102 Safari/537.36" etag="DiIL0fieqzcijWPBwgjl" version="20.5.3" type="embed"><diagram id="23iRSUPoRavnBvh4doch" name="Page-1"><mxGraphModel dx="83" dy="2169" grid="1" gridSize="10" guides="1" tooltips="1" connect="1" arrows="1" fold="1" page="1" pageScale="1" pageWidth="827" pageHeight="1169" math="1" shadow="0"><root><mxCell id="0"/><mxCell id="1" parent="0"/><mxCell id="2" value="" style="rounded=0;whiteSpace=wrap;html=1;fillColor=default;movable=1;resizable=1;rotatable=1;deletable=1;editable=1;locked=0;connectable=1;" vertex="1" parent="1"><mxGeometry x="3050" y="220" width="320" height="160" as="geometry"/></mxCell><mxCell id="3" value="" style="rounded=1;whiteSpace=wrap;html=1;fillColor=#fff2cc;strokeColor=#d6b656;" vertex="1" parent="1"><mxGeometry x="3060" y="235" width="200" height="130" as="geometry"/></mxCell><mxCell id="4" value="" style="rounded=0;whiteSpace=wrap;html=1;fillColor=default;movable=1;resizable=1;rotatable=1;deletable=1;editable=1;locked=0;connectable=1;" vertex="1" parent="1"><mxGeometry x="2640" y="220" width="320" height="160" as="geometry"/></mxCell><mxCell id="5" value="" style="rounded=0;whiteSpace=wrap;html=1;fillColor=default;" vertex="1" parent="1"><mxGeometry x="1790" y="220" width="320" height="160" as="geometry"/></mxCell><mxCell id="6" value="" style="ellipse;whiteSpace=wrap;html=1;aspect=fixed;fillColor=#dae8fc;strokeColor=#6c8ebf;" vertex="1" parent="1"><mxGeometry x="1830" y="270" width="20" height="20" as="geometry"/></mxCell><mxCell id="7" value="" style="ellipse;whiteSpace=wrap;html=1;aspect=fixed;fillColor=#f8cecc;strokeColor=#b85450;direction=south;" vertex="1" parent="1"><mxGeometry x="2020" y="255" width="20" height="20" as="geometry"/></mxCell><mxCell id="8" value="" style="ellipse;whiteSpace=wrap;html=1;aspect=fixed;fillColor=#f8cecc;strokeColor=#b85450;direction=south;" vertex="1" parent="1"><mxGeometry x="2000" y="295" width="20" height="20" as="geometry"/></mxCell><mxCell id="9" value="" style="ellipse;whiteSpace=wrap;html=1;aspect=fixed;fillColor=#f8cecc;strokeColor=#b85450;direction=south;" vertex="1" parent="1"><mxGeometry x="2020" y="325" width="20" height="20" as="geometry"/></mxCell><mxCell id="10" value="" style="ellipse;whiteSpace=wrap;html=1;aspect=fixed;fillColor=#dae8fc;strokeColor=#6c8ebf;" vertex="1" parent="1"><mxGeometry x="1820" y="295" width="20" height="20" as="geometry"/></mxCell><mxCell id="11" value="" style="ellipse;whiteSpace=wrap;html=1;aspect=fixed;fillColor=#dae8fc;strokeColor=#6c8ebf;" vertex="1" parent="1"><mxGeometry x="1830" y="340" width="20" height="20" as="geometry"/></mxCell><mxCell id="12" value="" style="ellipse;whiteSpace=wrap;html=1;aspect=fixed;fillColor=#dae8fc;strokeColor=#6c8ebf;" vertex="1" parent="1"><mxGeometry x="1920" y="270" width="20" height="20" as="geometry"/></mxCell><mxCell id="13" value="" style="ellipse;whiteSpace=wrap;html=1;aspect=fixed;fillColor=#dae8fc;strokeColor=#6c8ebf;" vertex="1" parent="1"><mxGeometry x="1900" y="295" width="20" height="20" as="geometry"/></mxCell><mxCell id="14" value="" style="ellipse;whiteSpace=wrap;html=1;aspect=fixed;fillColor=#dae8fc;strokeColor=#6c8ebf;" vertex="1" parent="1"><mxGeometry x="1910" y="325" width="20" height="20" as="geometry"/></mxCell><mxCell id="15" value="" style="ellipse;whiteSpace=wrap;html=1;aspect=fixed;fillColor=#dae8fc;strokeColor=#6c8ebf;" vertex="1" parent="1"><mxGeometry x="1850" y="250" width="20" height="20" as="geometry"/></mxCell><mxCell id="16" value="" style="endArrow=classic;html=1;rounded=0;exitX=1;exitY=0.5;exitDx=0;exitDy=0;entryX=0.895;entryY=0.737;entryDx=0;entryDy=0;entryPerimeter=0;fillColor=#cdeb8b;strokeColor=#36393d;" edge="1" parent="1" source="11" target="9"><mxGeometry width="50" height="50" relative="1" as="geometry"><mxPoint x="1900" y="340" as="sourcePoint"/><mxPoint x="1950" y="290" as="targetPoint"/></mxGeometry></mxCell><mxCell id="17" value="" style="endArrow=classic;html=1;rounded=0;exitX=1.088;exitY=0.489;exitDx=0;exitDy=0;exitPerimeter=0;fillColor=#cdeb8b;strokeColor=#36393d;" edge="1" parent="1" source="15" target="7"><mxGeometry width="50" height="50" relative="1" as="geometry"><mxPoint x="1870" y="257" as="sourcePoint"/><mxPoint x="2045" y="250" as="targetPoint"/></mxGeometry></mxCell><mxCell id="18" value="" style="endArrow=classic;html=1;rounded=0;exitX=1;exitY=0.5;exitDx=0;exitDy=0;entryX=0.018;entryY=0.412;entryDx=0;entryDy=0;entryPerimeter=0;fillColor=#cdeb8b;strokeColor=#36393d;" edge="1" parent="1" source="6" target="8"><mxGeometry width="50" height="50" relative="1" as="geometry"><mxPoint x="1882" y="270" as="sourcePoint"/><mxPoint x="2030" y="275" as="targetPoint"/></mxGeometry></mxCell><mxCell id="19" value="" style="endArrow=classic;html=1;rounded=0;exitX=1;exitY=0.5;exitDx=0;exitDy=0;entryX=0.5;entryY=1;entryDx=0;entryDy=0;fillColor=#cdeb8b;strokeColor=#36393d;" edge="1" parent="1" source="10" target="8"><mxGeometry width="50" height="50" relative="1" as="geometry"><mxPoint x="1860" y="290" as="sourcePoint"/><mxPoint x="2022" y="305" as="targetPoint"/></mxGeometry></mxCell><mxCell id="20" value="" style="endArrow=classic;html=1;rounded=0;exitX=1;exitY=0.5;exitDx=0;exitDy=0;entryX=0.349;entryY=0.841;entryDx=0;entryDy=0;entryPerimeter=0;fillColor=#cdeb8b;strokeColor=#36393d;" edge="1" parent="1" source="14" target="9"><mxGeometry width="50" height="50" relative="1" as="geometry"><mxPoint x="1850" y="315" as="sourcePoint"/><mxPoint x="2010" y="315" as="targetPoint"/></mxGeometry></mxCell><mxCell id="21" value="" style="endArrow=classic;html=1;rounded=0;exitX=0.912;exitY=0.694;exitDx=0;exitDy=0;entryX=1;entryY=1;entryDx=0;entryDy=0;exitPerimeter=0;fillColor=#cdeb8b;strokeColor=#36393d;" edge="1" parent="1" source="13" target="8"><mxGeometry width="50" height="50" relative="1" as="geometry"><mxPoint x="1940" y="345" as="sourcePoint"/><mxPoint x="2033" y="342" as="targetPoint"/></mxGeometry></mxCell><mxCell id="22" value="" style="endArrow=classic;html=1;rounded=0;exitX=0.99;exitY=0.359;exitDx=0;exitDy=0;entryX=1;entryY=0.5;entryDx=0;entryDy=0;exitPerimeter=0;fillColor=#cdeb8b;strokeColor=#36393d;" edge="1" parent="1" source="12" target="7"><mxGeometry width="50" height="50" relative="1" as="geometry"><mxPoint x="1928" y="319" as="sourcePoint"/><mxPoint x="2013" y="322" as="targetPoint"/></mxGeometry></mxCell><mxCell id="23" value="Baseline&lt;br&gt;Chamfer + Neural Prior" style="text;html=1;strokeColor=none;fillColor=none;align=center;verticalAlign=middle;whiteSpace=wrap;rounded=0;" vertex="1" parent="1"><mxGeometry x="1862.5" y="180" width="175" height="30" as="geometry"/></mxCell><mxCell id="24" value="" style="rounded=0;whiteSpace=wrap;html=1;fillColor=default;" vertex="1" parent="1"><mxGeometry x="2200" y="220" width="320" height="160" as="geometry"/></mxCell><mxCell id="25" value="" style="ellipse;whiteSpace=wrap;html=1;aspect=fixed;fillColor=#dae8fc;strokeColor=#6c8ebf;" vertex="1" parent="1"><mxGeometry x="2240" y="270" width="20" height="20" as="geometry"/></mxCell><mxCell id="26" value="" style="ellipse;whiteSpace=wrap;html=1;aspect=fixed;fillColor=#f8cecc;strokeColor=#b85450;direction=south;" vertex="1" parent="1"><mxGeometry x="2430" y="255" width="20" height="20" as="geometry"/></mxCell><mxCell id="27" value="" style="ellipse;whiteSpace=wrap;html=1;aspect=fixed;fillColor=#f8cecc;strokeColor=#b85450;direction=south;" vertex="1" parent="1"><mxGeometry x="2410" y="295" width="20" height="20" as="geometry"/></mxCell><mxCell id="28" value="" style="ellipse;whiteSpace=wrap;html=1;aspect=fixed;fillColor=#f8cecc;strokeColor=#b85450;direction=south;" vertex="1" parent="1"><mxGeometry x="2430" y="325" width="20" height="20" as="geometry"/></mxCell><mxCell id="29" value="" style="ellipse;whiteSpace=wrap;html=1;aspect=fixed;fillColor=#dae8fc;strokeColor=#6c8ebf;" vertex="1" parent="1"><mxGeometry x="2230" y="295" width="20" height="20" as="geometry"/></mxCell><mxCell id="30" value="" style="ellipse;whiteSpace=wrap;html=1;aspect=fixed;fillColor=#dae8fc;strokeColor=#6c8ebf;" vertex="1" parent="1"><mxGeometry x="2240" y="340" width="20" height="20" as="geometry"/></mxCell><mxCell id="31" value="" style="ellipse;whiteSpace=wrap;html=1;aspect=fixed;fillColor=#dae8fc;strokeColor=#6c8ebf;" vertex="1" parent="1"><mxGeometry x="2330" y="270" width="20" height="20" as="geometry"/></mxCell><mxCell id="32" value="" style="ellipse;whiteSpace=wrap;html=1;aspect=fixed;fillColor=#dae8fc;strokeColor=#6c8ebf;" vertex="1" parent="1"><mxGeometry x="2310" y="295" width="20" height="20" as="geometry"/></mxCell><mxCell id="33" value="" style="ellipse;whiteSpace=wrap;html=1;aspect=fixed;fillColor=#dae8fc;strokeColor=#6c8ebf;" vertex="1" parent="1"><mxGeometry x="2320" y="325" width="20" height="20" as="geometry"/></mxCell><mxCell id="34" value="" style="ellipse;whiteSpace=wrap;html=1;aspect=fixed;fillColor=#dae8fc;strokeColor=#6c8ebf;" vertex="1" parent="1"><mxGeometry x="2260" y="250" width="20" height="20" as="geometry"/></mxCell><mxCell id="35" value="" style="endArrow=classic;html=1;rounded=0;exitX=1;exitY=0.5;exitDx=0;exitDy=0;fillColor=#cdeb8b;strokeColor=#36393d;movable=1;resizable=1;rotatable=1;deletable=1;editable=1;locked=0;connectable=1;horizontal=1;labelPosition=right;verticalLabelPosition=middle;align=left;verticalAlign=middle;textDirection=ltr;" edge="1" parent="1" source="30"><mxGeometry width="50" height="50" relative="1" as="geometry"><mxPoint x="2310" y="340" as="sourcePoint"/><mxPoint x="2420" y="340" as="targetPoint"/></mxGeometry></mxCell><mxCell id="36" value="" style="endArrow=classic;html=1;rounded=0;exitX=1.088;exitY=0.489;exitDx=0;exitDy=0;exitPerimeter=0;fillColor=#cdeb8b;strokeColor=#36393d;" edge="1" parent="1" source="34" target="26"><mxGeometry width="50" height="50" relative="1" as="geometry"><mxPoint x="2280" y="257" as="sourcePoint"/><mxPoint x="2455" y="250" as="targetPoint"/></mxGeometry></mxCell><mxCell id="37" value="" style="endArrow=classic;html=1;rounded=0;exitX=1;exitY=0.5;exitDx=0;exitDy=0;entryX=0.018;entryY=0.412;entryDx=0;entryDy=0;entryPerimeter=0;fillColor=#cdeb8b;strokeColor=#36393d;" edge="1" parent="1" source="25" target="27"><mxGeometry width="50" height="50" relative="1" as="geometry"><mxPoint x="2292" y="270" as="sourcePoint"/><mxPoint x="2440" y="275" as="targetPoint"/></mxGeometry></mxCell><mxCell id="38" value="" style="endArrow=classic;html=1;rounded=0;exitX=1;exitY=0.5;exitDx=0;exitDy=0;entryX=0.5;entryY=1;entryDx=0;entryDy=0;fillColor=#cdeb8b;strokeColor=#36393d;" edge="1" parent="1" source="29" target="27"><mxGeometry width="50" height="50" relative="1" as="geometry"><mxPoint x="2270" y="290" as="sourcePoint"/><mxPoint x="2432" y="305" as="targetPoint"/></mxGeometry></mxCell><mxCell id="39" value="" style="endArrow=classic;html=1;rounded=0;exitX=1;exitY=0.5;exitDx=0;exitDy=0;entryX=0.349;entryY=0.841;entryDx=0;entryDy=0;entryPerimeter=0;fillColor=#cdeb8b;strokeColor=#36393d;" edge="1" parent="1" source="33" target="28"><mxGeometry width="50" height="50" relative="1" as="geometry"><mxPoint x="2260" y="315" as="sourcePoint"/><mxPoint x="2420" y="315" as="targetPoint"/></mxGeometry></mxCell><mxCell id="40" value="" style="endArrow=classic;html=1;rounded=0;exitX=0.912;exitY=0.694;exitDx=0;exitDy=0;entryX=1;entryY=1;entryDx=0;entryDy=0;exitPerimeter=0;fillColor=#cdeb8b;strokeColor=#36393d;" edge="1" parent="1" source="32" target="27"><mxGeometry width="50" height="50" relative="1" as="geometry"><mxPoint x="2350" y="345" as="sourcePoint"/><mxPoint x="2443" y="342" as="targetPoint"/></mxGeometry></mxCell><mxCell id="41" value="" style="endArrow=classic;html=1;rounded=0;exitX=0.99;exitY=0.359;exitDx=0;exitDy=0;entryX=1;entryY=0.5;entryDx=0;entryDy=0;exitPerimeter=0;fillColor=#cdeb8b;strokeColor=#36393d;" edge="1" parent="1" source="31" target="26"><mxGeometry width="50" height="50" relative="1" as="geometry"><mxPoint x="2338" y="319" as="sourcePoint"/><mxPoint x="2423" y="322" as="targetPoint"/></mxGeometry></mxCell><mxCell id="42" value="Chamfer + Neural Prior + Smoothnes" style="text;html=1;strokeColor=none;fillColor=none;align=center;verticalAlign=middle;whiteSpace=wrap;rounded=0;" vertex="1" parent="1"><mxGeometry x="2246.25" y="180" width="227.5" height="30" as="geometry"/></mxCell><mxCell id="43" value="Chamfer + Neural Prior + Smoothnes + FF" style="text;html=1;strokeColor=none;fillColor=none;align=center;verticalAlign=middle;whiteSpace=wrap;rounded=0;" vertex="1" parent="1"><mxGeometry x="2690" y="175" width="227.5" height="30" as="geometry"/></mxCell><mxCell id="44" value="Chamfer + Neural Prior + Smoothnes + FF + Freespace" style="text;html=1;strokeColor=none;fillColor=none;align=center;verticalAlign=middle;whiteSpace=wrap;rounded=0;" vertex="1" parent="1"><mxGeometry x="3093" y="157.5" width="227.5" height="65" as="geometry"/></mxCell><mxCell id="45" value="" style="ellipse;whiteSpace=wrap;html=1;aspect=fixed;fillColor=#dae8fc;strokeColor=#6c8ebf;" vertex="1" parent="1"><mxGeometry x="2680" y="270" width="20" height="20" as="geometry"/></mxCell><mxCell id="46" value="" style="ellipse;whiteSpace=wrap;html=1;aspect=fixed;fillColor=#f8cecc;strokeColor=#b85450;direction=south;" vertex="1" parent="1"><mxGeometry x="2870" y="255" width="20" height="20" as="geometry"/></mxCell><mxCell id="47" value="" style="ellipse;whiteSpace=wrap;html=1;aspect=fixed;fillColor=#f8cecc;strokeColor=#b85450;direction=south;" vertex="1" parent="1"><mxGeometry x="2850" y="295" width="20" height="20" as="geometry"/></mxCell><mxCell id="48" value="" style="ellipse;whiteSpace=wrap;html=1;aspect=fixed;fillColor=#f8cecc;strokeColor=#b85450;direction=south;" vertex="1" parent="1"><mxGeometry x="2870" y="325" width="20" height="20" as="geometry"/></mxCell><mxCell id="49" value="" style="ellipse;whiteSpace=wrap;html=1;aspect=fixed;fillColor=#dae8fc;strokeColor=#6c8ebf;" vertex="1" parent="1"><mxGeometry x="2670" y="295" width="20" height="20" as="geometry"/></mxCell><mxCell id="50" value="" style="ellipse;whiteSpace=wrap;html=1;aspect=fixed;fillColor=#dae8fc;strokeColor=#6c8ebf;" vertex="1" parent="1"><mxGeometry x="2680" y="340" width="20" height="20" as="geometry"/></mxCell><mxCell id="51" value="" style="ellipse;whiteSpace=wrap;html=1;aspect=fixed;fillColor=#dae8fc;strokeColor=#6c8ebf;" vertex="1" parent="1"><mxGeometry x="2770" y="270" width="20" height="20" as="geometry"/></mxCell><mxCell id="52" value="" style="ellipse;whiteSpace=wrap;html=1;aspect=fixed;fillColor=#dae8fc;strokeColor=#6c8ebf;" vertex="1" parent="1"><mxGeometry x="2750" y="295" width="20" height="20" as="geometry"/></mxCell><mxCell id="53" value="" style="ellipse;whiteSpace=wrap;html=1;aspect=fixed;fillColor=#dae8fc;strokeColor=#6c8ebf;" vertex="1" parent="1"><mxGeometry x="2760" y="325" width="20" height="20" as="geometry"/></mxCell><mxCell id="54" value="" style="ellipse;whiteSpace=wrap;html=1;aspect=fixed;fillColor=#dae8fc;strokeColor=#6c8ebf;" vertex="1" parent="1"><mxGeometry x="2700" y="250" width="20" height="20" as="geometry"/></mxCell><mxCell id="55" value="" style="endArrow=classic;html=1;rounded=0;exitX=1;exitY=0.5;exitDx=0;exitDy=0;fillColor=#cdeb8b;strokeColor=#36393d;movable=1;resizable=1;rotatable=1;deletable=1;editable=1;locked=0;connectable=1;horizontal=1;labelPosition=right;verticalLabelPosition=middle;align=left;verticalAlign=middle;textDirection=ltr;" edge="1" parent="1" source="50"><mxGeometry width="50" height="50" relative="1" as="geometry"><mxPoint x="2750" y="340" as="sourcePoint"/><mxPoint x="2840" y="350" as="targetPoint"/></mxGeometry></mxCell><mxCell id="56" value="" style="endArrow=classic;html=1;rounded=0;exitX=1.088;exitY=0.489;exitDx=0;exitDy=0;exitPerimeter=0;fillColor=#cdeb8b;strokeColor=#36393d;" edge="1" parent="1" source="54"><mxGeometry width="50" height="50" relative="1" as="geometry"><mxPoint x="2720" y="257" as="sourcePoint"/><mxPoint x="2830" y="260" as="targetPoint"/></mxGeometry></mxCell><mxCell id="57" value="" style="endArrow=classic;html=1;rounded=0;exitX=1;exitY=0.5;exitDx=0;exitDy=0;fillColor=#cdeb8b;strokeColor=#36393d;" edge="1" parent="1" source="45"><mxGeometry width="50" height="50" relative="1" as="geometry"><mxPoint x="2732" y="270" as="sourcePoint"/><mxPoint x="2840" y="280" as="targetPoint"/></mxGeometry></mxCell><mxCell id="58" value="" style="endArrow=classic;html=1;rounded=0;exitX=1;exitY=0.5;exitDx=0;exitDy=0;fillColor=#cdeb8b;strokeColor=#36393d;" edge="1" parent="1" source="49"><mxGeometry width="50" height="50" relative="1" as="geometry"><mxPoint x="2710" y="290" as="sourcePoint"/><mxPoint x="2820" y="305" as="targetPoint"/></mxGeometry></mxCell><mxCell id="59" value="" style="endArrow=classic;html=1;rounded=0;exitX=1;exitY=0.5;exitDx=0;exitDy=0;fillColor=#cdeb8b;strokeColor=#36393d;" edge="1" parent="1" source="53"><mxGeometry width="50" height="50" relative="1" as="geometry"><mxPoint x="2700" y="315" as="sourcePoint"/><mxPoint x="2920" y="335" as="targetPoint"/></mxGeometry></mxCell><mxCell id="60" value="" style="endArrow=classic;html=1;rounded=0;exitX=0.912;exitY=0.694;exitDx=0;exitDy=0;exitPerimeter=0;fillColor=#cdeb8b;strokeColor=#36393d;" edge="1" parent="1" source="52"><mxGeometry width="50" height="50" relative="1" as="geometry"><mxPoint x="2790" y="345" as="sourcePoint"/><mxPoint x="2910" y="310" as="targetPoint"/></mxGeometry></mxCell><mxCell id="61" value="" style="endArrow=classic;html=1;rounded=0;exitX=0.99;exitY=0.359;exitDx=0;exitDy=0;exitPerimeter=0;fillColor=#cdeb8b;strokeColor=#36393d;" edge="1" parent="1" source="51"><mxGeometry width="50" height="50" relative="1" as="geometry"><mxPoint x="2778" y="319" as="sourcePoint"/><mxPoint x="2920" y="280" as="targetPoint"/></mxGeometry></mxCell><mxCell id="62" value="" style="ellipse;whiteSpace=wrap;html=1;aspect=fixed;fillColor=#dae8fc;strokeColor=#6c8ebf;" vertex="1" parent="1"><mxGeometry x="3090" y="270" width="20" height="20" as="geometry"/></mxCell><mxCell id="63" value="" style="ellipse;whiteSpace=wrap;html=1;aspect=fixed;fillColor=#f8cecc;strokeColor=#b85450;direction=south;" vertex="1" parent="1"><mxGeometry x="3280" y="255" width="20" height="20" as="geometry"/></mxCell><mxCell id="64" value="" style="ellipse;whiteSpace=wrap;html=1;aspect=fixed;fillColor=#f8cecc;strokeColor=#b85450;direction=south;" vertex="1" parent="1"><mxGeometry x="3260" y="295" width="20" height="20" as="geometry"/></mxCell><mxCell id="65" value="" style="ellipse;whiteSpace=wrap;html=1;aspect=fixed;fillColor=#f8cecc;strokeColor=#b85450;direction=south;" vertex="1" parent="1"><mxGeometry x="3280" y="325" width="20" height="20" as="geometry"/></mxCell><mxCell id="66" value="" style="ellipse;whiteSpace=wrap;html=1;aspect=fixed;fillColor=#dae8fc;strokeColor=#6c8ebf;" vertex="1" parent="1"><mxGeometry x="3080" y="295" width="20" height="20" as="geometry"/></mxCell><mxCell id="67" value="" style="ellipse;whiteSpace=wrap;html=1;aspect=fixed;fillColor=#dae8fc;strokeColor=#6c8ebf;" vertex="1" parent="1"><mxGeometry x="3090" y="340" width="20" height="20" as="geometry"/></mxCell><mxCell id="68" value="" style="ellipse;whiteSpace=wrap;html=1;aspect=fixed;fillColor=#dae8fc;strokeColor=#6c8ebf;" vertex="1" parent="1"><mxGeometry x="3180" y="270" width="20" height="20" as="geometry"/></mxCell><mxCell id="69" value="" style="ellipse;whiteSpace=wrap;html=1;aspect=fixed;fillColor=#dae8fc;strokeColor=#6c8ebf;" vertex="1" parent="1"><mxGeometry x="3160" y="295" width="20" height="20" as="geometry"/></mxCell><mxCell id="70" value="" style="ellipse;whiteSpace=wrap;html=1;aspect=fixed;fillColor=#dae8fc;strokeColor=#6c8ebf;" vertex="1" parent="1"><mxGeometry x="3170" y="325" width="20" height="20" as="geometry"/></mxCell><mxCell id="71" value="" style="ellipse;whiteSpace=wrap;html=1;aspect=fixed;fillColor=#dae8fc;strokeColor=#6c8ebf;" vertex="1" parent="1"><mxGeometry x="3110" y="250" width="20" height="20" as="geometry"/></mxCell><mxCell id="72" value="" style="endArrow=classic;html=1;rounded=0;exitX=1;exitY=0.5;exitDx=0;exitDy=0;fillColor=#cdeb8b;strokeColor=#36393d;movable=1;resizable=1;rotatable=1;deletable=1;editable=1;locked=0;connectable=1;horizontal=1;labelPosition=right;verticalLabelPosition=middle;align=left;verticalAlign=middle;textDirection=ltr;" edge="1" parent="1" source="67"><mxGeometry width="50" height="50" relative="1" as="geometry"><mxPoint x="3160" y="340" as="sourcePoint"/><mxPoint x="3280" y="350" as="targetPoint"/></mxGeometry></mxCell><mxCell id="73" value="" style="endArrow=classic;html=1;rounded=0;exitX=1.088;exitY=0.489;exitDx=0;exitDy=0;exitPerimeter=0;fillColor=#cdeb8b;strokeColor=#36393d;entryX=0;entryY=1;entryDx=0;entryDy=0;" edge="1" parent="1" source="71" target="63"><mxGeometry width="50" height="50" relative="1" as="geometry"><mxPoint x="3130" y="257" as="sourcePoint"/><mxPoint x="3305" y="250" as="targetPoint"/></mxGeometry></mxCell><mxCell id="74" value="" style="endArrow=classic;html=1;rounded=0;exitX=1;exitY=0.5;exitDx=0;exitDy=0;fillColor=#cdeb8b;strokeColor=#36393d;" edge="1" parent="1" source="62"><mxGeometry width="50" height="50" relative="1" as="geometry"><mxPoint x="3142" y="270" as="sourcePoint"/><mxPoint x="3270" y="280" as="targetPoint"/></mxGeometry></mxCell><mxCell id="75" value="" style="endArrow=classic;html=1;rounded=0;exitX=1;exitY=0.5;exitDx=0;exitDy=0;fillColor=#cdeb8b;strokeColor=#36393d;entryX=0.5;entryY=1;entryDx=0;entryDy=0;" edge="1" parent="1" source="66" target="64"><mxGeometry width="50" height="50" relative="1" as="geometry"><mxPoint x="3120" y="290" as="sourcePoint"/><mxPoint x="3230" y="305" as="targetPoint"/></mxGeometry></mxCell><mxCell id="76" value="" style="endArrow=classic;html=1;rounded=0;exitX=1;exitY=0.5;exitDx=0;exitDy=0;fillColor=#cdeb8b;strokeColor=#36393d;" edge="1" parent="1" source="70"><mxGeometry width="50" height="50" relative="1" as="geometry"><mxPoint x="3110" y="315" as="sourcePoint"/><mxPoint x="3360" y="335" as="targetPoint"/></mxGeometry></mxCell><mxCell id="77" value="" style="endArrow=classic;html=1;rounded=0;exitX=0.912;exitY=0.694;exitDx=0;exitDy=0;exitPerimeter=0;fillColor=#cdeb8b;strokeColor=#36393d;" edge="1" parent="1" source="69"><mxGeometry width="50" height="50" relative="1" as="geometry"><mxPoint x="3200" y="345" as="sourcePoint"/><mxPoint x="3350" y="310" as="targetPoint"/></mxGeometry></mxCell><mxCell id="78" value="" style="endArrow=classic;html=1;rounded=0;exitX=0.99;exitY=0.359;exitDx=0;exitDy=0;exitPerimeter=0;fillColor=#cdeb8b;strokeColor=#36393d;" edge="1" parent="1" source="68"><mxGeometry width="50" height="50" relative="1" as="geometry"><mxPoint x="3188" y="319" as="sourcePoint"/><mxPoint x="3360" y="280" as="targetPoint"/></mxGeometry></mxCell><mxCell id="79" value="$$ \mathcal{L}_{freespace}$$" style="text;html=1;strokeColor=none;fillColor=none;align=center;verticalAlign=middle;whiteSpace=wrap;rounded=0;" vertex="1" parent="1"><mxGeometry x="3173.75" y="230.5" width="60" height="30" as="geometry"/></mxCell><mxCell id="80" value="e" style="shape=curlyBracket;whiteSpace=wrap;html=1;rounded=1;labelPosition=left;verticalLabelPosition=middle;align=right;verticalAlign=middle;rotation=90;" vertex="1" parent="1"><mxGeometry x="2897.5" y="220" width="20" height="50" as="geometry"/></mxCell><mxCell id="81" value="e" style="shape=curlyBracket;whiteSpace=wrap;html=1;rounded=1;labelPosition=left;verticalLabelPosition=middle;align=right;verticalAlign=middle;rotation=90;" vertex="1" parent="1"><mxGeometry x="2840" y="220" width="20" height="50" as="geometry"/></mxCell><mxCell id="82" value="" style="rounded=1;whiteSpace=wrap;html=1;fillColor=none;strokeColor=#82b366;strokeWidth=3;" vertex="1" parent="1"><mxGeometry x="2210" y="231" width="85" height="138" as="geometry"/></mxCell><mxCell id="83" value="" style="rounded=1;whiteSpace=wrap;html=1;fillColor=none;strokeColor=#d6b656;strokeWidth=3;" vertex="1" parent="1"><mxGeometry x="2310" y="254" width="47" height="102" as="geometry"/></mxCell><mxCell id="84" value="$$KNN_2$$" style="text;html=1;strokeColor=none;fillColor=none;align=center;verticalAlign=middle;whiteSpace=wrap;rounded=0;" vertex="1" parent="1"><mxGeometry x="2313" y="227" width="60" height="30" as="geometry"/></mxCell><mxCell id="85" value="$$KNN_1$$" style="text;html=1;strokeColor=none;fillColor=none;align=center;verticalAlign=middle;whiteSpace=wrap;rounded=0;" vertex="1" parent="1"><mxGeometry x="2210" y="231" width="60" height="30" as="geometry"/></mxCell></root></mxGraphModel></diagram></mxfile>